<svg width="16" height="16" viewBox="0 0 16 16" fill="none" xmlns="http://www.w3.org/2000/svg">
<path d="M14.6667 5.68V2.65333C14.6667 1.71333 14.24 1.33333 13.18 1.33333H10.4867C9.42667 1.33333 9 1.71333 9 2.65333V5.67333C9 6.62 9.42667 6.99333 10.4867 6.99333H13.18C14.24 6.99999 14.6667 6.62 14.6667 5.68Z" fill="white" stroke="#5444F2" stroke-width="1.5" stroke-linecap="round" stroke-linejoin="round"/>
<path d="M14.6667 13.18V10.4867C14.6667 9.42667 14.24 9 13.18 9H10.4867C9.42667 9 9 9.42667 9 10.4867V13.18C9 14.24 9.42667 14.6667 10.4867 14.6667H13.18C14.24 14.6667 14.6667 14.24 14.6667 13.18Z" fill="white" stroke="#5444F2" stroke-width="1.5" stroke-linecap="round" stroke-linejoin="round"/>
<path d="M6.99999 5.68V2.65333C6.99999 1.71333 6.57333 1.33333 5.51333 1.33333H2.81999C1.75999 1.33333 1.33333 1.71333 1.33333 2.65333V5.67333C1.33333 6.62 1.75999 6.99333 2.81999 6.99333H5.51333C6.57333 6.99999 6.99999 6.62 6.99999 5.68Z" stroke="#5444F2" stroke-width="1.5" stroke-linecap="round" stroke-linejoin="round"/>
<path d="M6.99999 13.18V10.4867C6.99999 9.42667 6.57333 9 5.51333 9H2.81999C1.75999 9 1.33333 9.42667 1.33333 10.4867V13.18C1.33333 14.24 1.75999 14.6667 2.81999 14.6667H5.51333C6.57333 14.6667 6.99999 14.24 6.99999 13.18Z" stroke="#5444F2" stroke-width="1.5" stroke-linecap="round" stroke-linejoin="round"/>
</svg>
